<?xml version="1.0" encoding="UTF-8" standalone="no"?>
<!-- Created with Inkscape (http://www.inkscape.org/) -->

<svg
   width="2048"
   height="2048"
   viewBox="0 0 2048 2048"
   version="1.1"
   id="svg235"
   inkscape:version="1.4 (86a8ad7, 2024-10-11)"
   sodipodi:docname="logo.svg"
   inkscape:export-filename="sotthi2048.png"
   inkscape:export-xdpi="96"
   inkscape:export-ydpi="96"
   xmlns:inkscape="http://www.inkscape.org/namespaces/inkscape"
   xmlns:sodipodi="http://sodipodi.sourceforge.net/DTD/sodipodi-0.dtd"
   xmlns="http://www.w3.org/2000/svg"
   xmlns:svg="http://www.w3.org/2000/svg"
   xmlns:rdf="http://www.w3.org/1999/02/22-rdf-syntax-ns#"
   xmlns:cc="http://creativecommons.org/ns#"
   xmlns:dc="http://purl.org/dc/elements/1.1/">
  <title
     id="title1461">Sotthi</title>
  <sodipodi:namedview
     id="namedview237"
     pagecolor="#ffffff"
     bordercolor="#666666"
     borderopacity="1.0"
     inkscape:pageshadow="2"
     inkscape:pageopacity="0.0"
     inkscape:pagecheckerboard="true"
     inkscape:document-units="px"
     showgrid="false"
     width="724mm"
     inkscape:zoom="0.22627417"
     inkscape:cx="2.2097087"
     inkscape:cy="859.57668"
     inkscape:window-width="1920"
     inkscape:window-height="1009"
     inkscape:window-x="-8"
     inkscape:window-y="711"
     inkscape:window-maximized="1"
     inkscape:current-layer="layer1"
     borderlayer="false"
     fit-margin-top="8"
     fit-margin-left="8"
     fit-margin-right="8"
     fit-margin-bottom="8"
     units="px"
     lock-margins="true"
     scale-x="1"
     inkscape:showpageshadow="2"
     inkscape:deskcolor="#d1d1d1" />
  <defs
     id="defs232" />
  <g
     inkscape:label="Sotthi"
     inkscape:groupmode="layer"
     id="layer1"
     transform="translate(-645.40686,-407.47723)">
    <ellipse
       style="display:inline;fill:#f7fdfe;fill-opacity:1;stroke-width:1.44617;stroke-miterlimit:4;stroke-dasharray:none"
       id="path1591"
       cx="1662.246"
       cy="1424.3164"
       inkscape:label="White"
       inkscape:export-filename="/home/jond/Public/sotthi.com/assets/media/icon.png"
       inkscape:export-xdpi="24"
       inkscape:export-ydpi="24"
       rx="1016.8391"
       ry="1016.8392" />
    <path
       style="display:inline;fill:#7f00ff;fill-opacity:1;stroke-width:0.89086"
       d="m 1698.7131,1827.5347 c -9.4514,-7.702 -21.0432,-19.7595 -32.0978,-33.3876 -1.7654,-2.1763 -4.2576,-5.2124 -5.5384,-6.747 -1.2807,-1.5344 -2.9315,-3.6256 -3.6683,-4.6466 -0.7367,-1.0212 -5.0538,-6.9822 -9.5934,-13.2467 -4.5396,-6.2647 -8.6732,-12.0494 -9.1858,-12.8552 -0.5127,-0.8057 -3.4015,-5.0379 -6.4196,-9.4047 -6.6986,-9.6923 -10.6143,-15.6498 -16.9646,-25.8109 -2.6772,-4.2835 -5.6166,-8.8311 -6.5324,-10.1056 -1.5962,-2.2223 -2.8479,-4.2419 -7.9494,-12.8273 -1.2726,-2.1418 -3.0238,-5.0626 -3.8914,-6.4905 -13.263,-21.8288 -19.0885,-31.7766 -28.3794,-48.4621 -2.3853,-4.2838 -5.6943,-10.1252 -7.3535,-12.981 -9.1217,-15.7009 -39.6353,-74.687 -47.2293,-91.2995 -1.6318,-3.5697 -4.5206,-9.6058 -6.4196,-13.4137 -1.8991,-3.8077 -4.3944,-9.2597 -5.5452,-12.1155 -1.1507,-2.8557 -3.1993,-7.5289 -4.5522,-10.3847 -1.3531,-2.8557 -3.3893,-7.5289 -4.5251,-10.3848 -1.136,-2.8558 -4.0262,-10.0602 -6.4229,-16.0098 -5.1276,-12.7288 -6.5821,-16.8328 -10.8878,-30.7216 -7.0769,-22.8281 -7.9945,-31.3789 -4.2258,-39.3756 3.0197,-6.4073 8.863,-16.0319 10.5225,-17.3314 0.74,-0.5796 1.3455,-1.5175 1.3455,-2.084 0,-0.5667 1.2381,-2.1495 2.7512,-3.5175 1.5133,-1.3681 2.7513,-2.951 2.7513,-3.5176 0,-0.5666 0.6906,-1.5647 1.5348,-2.218 0.8441,-0.6532 3.3462,-3.5242 5.56,-6.38 5.6226,-7.2531 26.7684,-28.8975 44.3529,-45.3984 11.1807,-10.4919 18.3158,-16.8649 31.3675,-28.0178 5.1049,-4.3622 9.9512,-8.5153 10.7699,-9.2292 0.8187,-0.7141 3.4869,-2.8559 5.9297,-4.7598 2.4428,-1.9038 7.6035,-5.9928 11.468,-9.0866 3.8646,-3.0938 8.5807,-6.7933 10.4804,-8.2213 1.8996,-1.4279 4.9998,-3.7646 6.8894,-5.1923 15.3534,-11.6024 16.59,-12.5015 26.1871,-19.0388 4.8912,-3.3318 9.7384,-6.7392 10.7714,-7.5722 1.0331,-0.833 2.15,-1.5145 2.482,-1.5145 0.3321,0 1.4038,-0.6932 2.3816,-1.5405 0.9779,-0.8475 3.4205,-2.6972 5.428,-4.1108 10.9189,-7.6878 22.7656,-17.6634 24.6813,-20.783 0.9548,-1.5547 1.4835,-3.4475 1.1751,-4.2061 -1.2362,-3.04 -16.7422,-1.1495 -37.7602,4.6041 -16.7276,4.579 -43.0749,12.2365 -44.937,13.0603 -3.1227,1.3816 -19.5409,4.9824 -33.4734,7.3415 -7.3138,1.2385 -14.3293,2.609 -15.5904,3.0462 -2.4271,0.8412 -16.7705,2.6346 -35.7661,4.4717 -7.6239,0.7373 -26.6685,1.1149 -56.8591,1.1272 l -45.3954,0.018 -0.2774,-23.3658 c -0.525,-44.2415 2.6933,-56.5998 17.769,-68.2339 2.9894,-2.307 6.9968,-5.1434 8.9053,-6.3033 4.8731,-2.9617 22.6669,-20.5748 22.6669,-22.4367 0,-0.3874 0.7892,-1.5085 1.7538,-2.491 2.7658,-2.8174 10.7363,-17.7201 14.7023,-27.489 9.8997,-24.3844 11.67,-47.2881 5.0113,-64.834 -3.0152,-7.9454 -11.5496,-24.77711 -15.6433,-30.85229 -1.6901,-2.50809 -3.0729,-4.73399 -3.0729,-4.94646 0,-0.21249 -3.1983,-4.35633 -7.1074,-9.20854 -3.9091,-4.85222 -8.2178,-10.22015 -9.575,-11.92878 -4.4057,-5.54645 -9.6966,-15.09123 -11.5642,-20.86173 -4.0186,-12.41675 -3.6626,-18.9776 2.6528,-48.88041 4.4009,-20.83823 6.6648,-29.51324 13.3238,-51.05843 12.3094,-39.82632 21.2023,-61.01049 25.6115,-61.01049 1.7753,0 4.1529,4.75815 8.0001,16.00984 5.3652,15.69114 7.677,23.41412 12.1754,40.67367 3.9125,15.01172 14.5036,47.39275 18.9644,57.9816 12.6132,29.94056 25.8766,55.9109 39.2339,76.82193 3.2746,5.12654 6.3726,9.99439 6.8846,10.81748 1.9172,3.08249 13.2847,18.93501 15.9664,22.26601 1.5327,1.9039 3.1038,4.0852 3.4913,4.8474 0.3874,0.7621 1.8485,2.7093 3.2468,4.3269 1.3984,1.6177 4.9062,5.6755 7.7952,9.0174 2.889,3.3419 6.6843,7.8203 8.4338,9.9521 7.6447,9.3148 28.5633,29.0657 46.7249,44.1169 7.4691,6.1898 27.7617,20.4681 34.9241,24.5731 2.2697,1.3009 6.1902,3.5612 8.7122,5.0228 5.9218,3.4321 27.6223,13.7181 35.3077,16.7357 33.0497,12.9772 71.0107,21.6039 118.3033,26.8848 6.305,0.7041 14.9714,1.7024 19.2587,2.2184 10.2783,1.2372 72.4418,1.239 82.5373,0 4.2874,-0.5252 10.8903,-1.3487 14.6733,-1.8302 15.5439,-1.9781 56.0051,-5.3135 61.5018,-5.0697 l 5.9037,0.2619 -24.8319,23.3657 c -20.9319,19.6959 -44.843,41.5613 -56.6675,51.8194 -14.6578,12.7159 -55.7963,52.4782 -66.5205,64.2948 -3.0991,3.4149 -5.9665,6.3356 -6.3718,6.4906 -0.4054,0.1547 -5.9665,6.123 -12.358,13.2625 -23.0613,25.7603 -32.4295,36.669 -40.5032,47.1642 -1.2815,1.6658 -4.817,6.1443 -7.8566,9.9519 -3.0396,3.8078 -6.6439,8.4457 -8.0095,10.3065 -1.3656,1.8608 -3.1019,4.2245 -3.8585,5.2525 -0.7567,1.0281 -2.9225,3.984 -4.8128,6.5688 -1.8906,2.5848 -4.0133,5.4785 -4.7172,6.4304 -2.4629,3.3303 -15.6694,22.5163 -16.6793,24.2311 -0.5606,0.9519 -1.8986,3.0938 -2.9732,4.7597 -1.0747,1.6658 -2.994,4.7814 -4.2651,6.9232 -1.2711,2.1418 -4.7763,7.7885 -7.7895,12.5482 -8.5144,13.4494 -26.5135,47.649 -34.3871,65.3375 -3.9194,8.8054 -7.7458,17.3728 -8.5028,19.0387 -5.1038,11.2304 -17.1785,45.7613 -22.3357,63.8759 -2.9249,10.2733 -7.1554,30.4757 -9.186,43.866 -2.4595,16.2188 -3.2826,54.7761 -1.8125,84.9041 2.3628,48.4198 7.47,96.8622 11.5999,110.0267 0.929,2.961 -1.2801,2.4378 -6.0227,-1.427 z m 868.3427,-243.9733 c -46.4108,-43.4005 -66.2856,-61.8546 -95.2386,-88.4315 -13.2194,-12.1345 -28.049,-25.7622 -32.9548,-30.2839 -11.6988,-10.7826 -60.2969,-55.0672 -80.7681,-73.5988 -14.2513,-12.9012 -46.5824,-42.4847 -60.2641,-55.1426 -17.0164,-15.7431 -16.0643,-12.5566 -7.1711,-24.0012 20.1856,-25.9765 26.6905,-33.4332 34.5776,-39.6367 16.8943,-13.2875 34.597,-18.2309 48.7881,-13.6237 4.3606,1.4158 10.1361,4.9668 14.8839,9.1514 0.5563,0.4905 4.4774,2.4927 8.7134,4.4495 21.4743,9.9198 43.3606,16.7265 53.783,16.7265 5.6964,0 13.8303,-2.4046 18.8948,-5.5858 5.8918,-3.7007 30.1291,-22.6379 31.1267,-24.3198 0.4649,-0.7841 -0.4235,-3.5555 -2.4105,-7.5194 -1.7307,-3.4526 -5.3081,-10.7561 -7.9499,-16.2297 -2.6416,-5.4736 -7.0676,-14.4305 -9.8353,-19.9041 -2.7678,-5.4736 -6.7988,-13.6516 -8.9579,-18.1734 -5.2949,-11.0895 -10.0531,-20.826 -13.7446,-28.1254 -12.8321,-25.3725 -12.5663,-24.7199 -10.9934,-26.9853 0.8029,-1.1562 3.3954,-3.9802 5.7611,-6.2757 2.3659,-2.2953 9.6664,-9.5637 16.2235,-16.152 29.1013,-29.2392 35.3083,-34.0978 43.5613,-34.0978 4.0389,0 8.2463,1.6935 11.9221,4.7985 9.639,8.1425 20.4013,16.0124 24.8207,18.1503 1.7327,0.8381 3.3566,1.7616 3.6088,2.0521 0.6482,0.7469 7.5945,5.971 15.1318,11.3802 3.5308,2.5338 6.6944,4.993 7.0302,5.4649 1.0476,1.4715 9.6404,29.622 14.4351,47.29 13.2892,48.9695 24.0412,107.8612 28.9135,158.3676 3.2754,33.9526 3.7107,44.5104 3.7107,90.0012 0,54.3869 -1.4082,76.7643 -7.8338,124.4849 -3.0878,22.9318 -10.7488,66.829 -11.8556,67.9318 -0.4035,0.402 -16.5624,-14.0708 -35.9086,-32.1621 z m -310.283,-320.3053 c -1.1913,-3.542 1.3059,-31.0207 7.2257,-79.5111 1.7039,-13.9569 2.9127,-26.045 2.6861,-26.8625 -0.2671,-0.9639 -3.6958,-2.6559 -9.7553,-4.814 -5.1387,-1.8302 -10.9941,-4.0045 -13.0116,-4.8317 -2.0176,-0.8272 -7.5889,-2.8766 -12.3805,-4.5541 -4.7918,-1.6776 -11.1885,-4.0923 -14.2149,-5.3662 -3.0264,-1.2739 -6.7405,-2.8284 -8.2537,-3.4546 -10.1601,-4.2048 -21.7932,-10.0261 -24.785,-12.4026 -0.5175,-0.4111 -2.0858,-1.4553 -3.485,-2.3204 -1.6767,-1.0367 -2.4504,-2.1842 -2.269,-3.3653 0.5477,-3.5656 14.4411,-8.3858 34.2074,-11.868 27.5462,-4.8528 35.1265,-6.723 42.6303,-10.5174 11.4352,-5.7823 18.3491,-14.9244 24.2987,-32.1292 3.1498,-9.1088 6.0474,-23.0761 12.0534,-58.1024 1.8771,-10.94727 3.5791,-20.0956 3.7819,-20.32961 0.4099,-0.47267 1.2386,0.74161 5.2917,7.75328 1.5221,2.63326 4.5094,7.57414 6.6385,10.97973 2.129,3.4055 4.2804,7.1051 4.781,8.2212 0.5006,1.1162 2.1596,3.9765 3.6867,6.3564 1.5271,2.3798 3.7739,6.1065 4.993,8.2815 1.2189,2.175 4.5167,7.5179 7.3285,11.8732 2.8119,4.3552 5.1124,8.0858 5.1124,8.29 0,0.2043 1.6677,2.65 3.706,5.4348 2.0385,2.7848 4.6735,6.4263 5.8561,8.0922 3.4101,4.8042 12.1986,12.8258 16.1208,14.714 4.5582,2.1943 8.6914,2.1678 17.8785,-0.1145 10.1424,-2.5198 25.0676,-5.4938 40.8101,-8.132 7.3137,-1.2257 15.1547,-2.6184 17.4245,-3.0949 6.6662,-1.3995 22.3697,-4.2083 23.6148,-4.2237 0.6305,-0.01 1.1439,0.2778 1.1411,0.6348 -0.01,0.8201 -19.4938,22.2923 -26.507,29.2071 -7.0151,6.9166 -19.9306,21.3959 -31.5484,35.3683 -7.4441,8.9526 -11.6375,15.0758 -11.6375,16.9928 0,2.2665 8.2754,20.762 16.2606,36.3421 3.2932,6.4256 8.2497,16.3561 11.0144,22.0677 2.7647,5.7116 5.3315,10.7742 5.7039,11.2501 2.0433,2.6116 10.1238,23.6726 10.1238,26.3865 0,1.5789 -0.1927,1.5979 -3.8501,0.3803 -5.1578,-1.7173 -17.1427,-7.1586 -47.9648,-21.7766 -8.0703,-3.8276 -15.705,-7.2453 -16.9661,-7.595 -1.261,-0.3498 -2.7054,-0.9245 -3.2097,-1.2772 -2.621,-1.8326 -14.7416,-3.6641 -21.8352,-3.2992 -13.3065,0.6844 -18.4624,4.2868 -52.5561,36.7225 -15.1911,14.4521 -28.0598,26.2767 -28.5971,26.2767 -0.5371,0 -1.2314,-0.7574 -1.5429,-1.683 z m -432.8781,-206.5047 c -7.7197,-0.9913 -15.6955,-2.4041 -16.941,-3.0008 -0.7703,-0.3691 -4.0831,-1.3638 -7.3615,-2.2105 -14.7692,-3.814 -31.0325,-12.1701 -43.5615,-22.3817 -16.8948,-13.77 -25.733,-24.5734 -35.2298,-43.0629 -8.76,-17.05511 -13.1749,-35.49417 -13.2162,-55.19955 -0.043,-20.82946 5.215,-42.18798 15.0212,-61.01049 16.2282,-31.14945 35.5061,-48.02594 66.4397,-58.16368 17.7793,-5.8267 39.6403,-8.12724 61.3816,-6.45944 12.8656,0.98694 24.7626,2.82266 28.4922,4.39634 1.009,0.42566 5.1358,1.82484 9.1709,3.1093 32.1871,10.24572 57.8817,36.67913 70.5212,72.54884 6.7975,19.29049 8.8064,29.98412 8.8064,46.87723 0,28.87321 -8.9445,53.55205 -28.0717,77.45305 -14.6819,18.3462 -43.0146,36.0142 -67.3047,41.9704 -3.2786,0.804 -6.7865,1.7998 -7.7952,2.2131 -5.1619,2.1144 -31.682,4.0341 -40.3516,2.9208 z"
       id="path104"
       inkscape:label="(Indigo) Ajna: Enhances intuition, insight, and spiritual awareness."
       inkscape:export-filename="/home/jond/Public/sotthi.com/assets/media/icon.png"
       inkscape:export-xdpi="24"
       inkscape:export-ydpi="24" />
    <path
       style="display:inline;fill:#ff7f00;fill-opacity:1.0;stroke:none;stroke-width:0.89086"
       d="m 1624.5565,2377.8603 c -90.7161,-5.047 -163.7052,-17.5796 -245.1583,-42.095 l -17.7221,-5.334 -7.5375,-6.9646 c -4.1456,-3.8304 -9.8924,-9.0402 -12.7707,-11.5771 -2.8784,-2.5371 -5.2334,-4.9024 -5.2334,-5.2562 0,-0.6263 -3.2097,-3.676 -36.6002,-34.7746 -11.3108,-10.5346 -15.7228,-15.1837 -15.1319,-15.9455 0.8894,-1.1465 15.7452,-16.9878 26.7341,-28.5079 3.6527,-3.8291 12.9925,-13.7772 20.7551,-22.1065 7.7626,-8.3295 15.8201,-16.6902 17.9055,-18.5791 l 3.7916,-3.4345 2.9657,1.4505 c 1.6311,0.7978 7.7116,3.6584 13.5122,6.3573 5.8005,2.6986 14.1716,6.6096 18.6023,8.6908 4.4308,2.0813 8.2876,3.7841 8.5707,3.7841 0.2832,0 1.6102,0.706 2.949,1.5687 3.9016,2.5146 17.4441,7.9204 34.1714,13.6408 7.4266,2.5398 19.5813,5.2393 26.9561,5.987 6.8423,0.6938 17.756,-1.4812 22.5943,-4.5026 6.2588,-3.9084 11.6013,-13.4324 13.674,-24.3767 2.6025,-13.7419 -4.5336,-37.1864 -18.4708,-60.6836 -1.8351,-3.0937 -6.024,-10.4929 -9.3088,-16.4425 -5.4485,-9.8688 -11.9455,-21.4975 -15.7137,-28.1254 -0.8118,-1.428 -1.4785,-3.1146 -1.4816,-3.7479 0,-0.6334 3.6053,-5.1151 8.0188,-9.9592 4.4135,-4.8443 9.4558,-10.557 11.2051,-12.6948 1.7495,-2.1379 8.3524,-9.5338 14.6734,-16.4352 6.3208,-6.9016 12.7123,-14.106 14.2031,-16.0099 4.2084,-5.3745 15.4118,-17.2824 16.4942,-17.5311 0.9285,-0.2135 5.3389,3.2932 22.4714,17.8668 8.0837,6.8765 18.7252,16.0425 21.211,18.2703 0.7966,0.7139 5.9372,5.1924 11.4234,9.9522 5.4862,4.7597 11.2619,9.8222 12.8348,11.25 1.5728,1.428 6.5087,5.7117 10.9685,9.5194 4.4597,3.8077 9.4116,8.0914 11.0043,9.5194 2.8187,2.527 27.7576,24.6648 30.7092,27.2599 0.812,0.714 5.3845,4.803 10.1608,9.0868 4.7766,4.2836 15.668,14.0193 24.2032,21.635 8.5351,7.6155 18.0806,16.1829 21.212,19.0387 3.1316,2.8557 12.2685,11.1181 20.3045,18.3605 16.0971,14.5076 22.204,20.0648 52.4117,47.6923 11.2793,10.3158 23.4368,21.2873 27.0167,24.381 6.0957,5.2682 12.9514,11.5504 55.4179,50.7833 9.2052,8.5042 16.7367,15.7637 16.7367,16.1323 0,0.3686 6.0341,6.2531 13.409,13.0769 l 13.4088,12.4069 -15.4722,3.5147 c -47.4321,10.7749 -100.3899,18.5392 -154.8688,22.7062 -11.5714,0.8851 -86.1274,1.7687 -97.2105,1.1521 z M 1268.584,2167.7828 c 0.3354,-15.874 1.2506,-37.7687 2.0338,-48.6546 1.3634,-18.9505 1.3535,-19.8418 -0.2324,-20.947 -0.9109,-0.635 -6.8149,-3.5996 -13.1198,-6.5883 -26.8132,-12.7099 -44.2556,-21.3449 -49.2388,-24.376 -11.0904,-6.7457 -12.6981,-7.8581 -17.8851,-12.374 -5.8735,-5.1137 -6.7767,-7.8732 -3.2621,-9.9658 2.9161,-1.7363 21.7648,-7.115 30.493,-8.7016 7.1939,-1.3077 35.461,-5.008 47.2296,-6.1828 3.2786,-0.3272 6.3737,-0.8905 6.8782,-1.2516 0.5043,-0.361 3.909,-0.9341 7.5659,-1.2731 3.6568,-0.3391 6.6493,-0.8691 6.6498,-1.1778 0,-0.9205 3.3511,-24.9522 6.8928,-49.4561 4.3204,-29.891 5.6606,-39.7742 6.4052,-47.2309 0.7767,-7.7793 1.3982,-8.8165 4.4866,-7.4885 2.0176,0.8673 12.4781,13.0145 12.4781,14.49 0,0.295 1.0063,1.7816 2.2362,3.3031 1.23,1.5218 10.1459,17.5598 19.8131,35.64 9.6673,18.0802 18.0953,33.3893 18.7289,34.0199 0.9349,0.9305 2.6025,0.9601 8.8457,0.1566 4.2316,-0.5444 8.5189,-1.3143 9.5278,-1.7107 1.0088,-0.3965 7.6118,-1.3781 14.6733,-2.1813 19.0708,-2.1689 45.7848,-6.6015 49.5224,-8.2169 2.6213,-1.1331 19.5449,-5.2043 21.6331,-5.2043 2.7424,0 2.1945,4.0895 -1.2319,9.1953 -5.2162,7.7728 -7.9198,11.4134 -8.9005,11.9853 -0.5249,0.306 -3.457,3.6589 -6.5159,7.4508 -3.059,3.7919 -7.2506,8.5395 -9.3148,10.55 -5.063,4.9318 -14.2898,14.7415 -25.5244,27.1369 -5.1193,5.6482 -10.7103,11.3686 -12.4245,12.7122 -1.7142,1.3435 -3.1166,3.2188 -3.1166,4.1672 0,0.9485 2.1094,5.3011 4.6877,9.6728 6.2772,10.6432 13.4031,23.1207 23.32,40.8333 7.823,13.9728 15.9506,31.7875 16.627,36.4438 l 0.5515,3.7973 h -3.2889 c -3.397,0 -17.7875,-4.5446 -25.8484,-8.1631 -2.522,-1.1321 -6.6488,-2.9114 -9.1708,-3.9539 -5.3699,-2.2198 -3.2547,-1.2363 -31.3397,-14.5701 -12.1929,-5.7888 -22.966,-10.525 -23.9403,-10.525 -1.0963,0 -7.8508,5.9574 -17.7241,15.6329 -13.0521,12.7904 -42.0959,40.2785 -48.4355,45.841 -3.7036,3.2496 -8.1774,6.027 -9.7085,6.027 -1.5894,0 -1.6383,-1.3338 -1.0567,-28.862 z m -239.0777,-405.7835 c -1.6785,-2.4989 -4.6637,-6.88 -6.6339,-9.7359 -1.9701,-2.8557 -3.7917,-5.5817 -4.0478,-6.0578 -0.4581,-0.8511 -1.9864,-3.0946 -13.2634,-19.4713 -12.81954,-18.6166 -17.87607,-27.0688 -32.6852,-54.6342 -2.97438,-5.5365 -5.40795,-10.2961 -5.40795,-10.5769 0,-0.2807 -1.80888,-4.1237 -4.01974,-8.5399 -7.68677,-15.3537 -18.98958,-42.8878 -24.2556,-59.0875 -9.0823,-27.9396 -10.76507,-33.9798 -16.15288,-57.9816 -10.93357,-48.7071 -13.80946,-75.8945 -13.09048,-123.7518 0.62564,-41.6415 2.10716,-53.6509 12.17061,-98.6552 2.76721,-12.3753 5.26063,-23.6686 5.54093,-25.0966 1.41281,-7.1972 2.96956,-7.4837 5.88222,-1.0817 1.91037,4.1989 9.15548,19.216 15.76133,32.6688 8.22291,16.7458 17.51632,32.9407 24.58317,42.8391 8.81842,12.3521 23.2706,28.5244 33.71869,37.7325 28.454,25.077 63.9956,42.2071 99.258,47.8397 18.1284,2.8957 26.0272,3.4388 54.3371,3.7359 22.1652,0.2325 29.116,0.5581 29.1118,1.3636 -0.01,1.0597 -15.0634,18.0484 -18.2341,20.5722 -0.9263,0.7373 -7.5622,7.747 -14.7464,15.5771 -7.1842,7.8303 -17.7809,19.3695 -23.5481,25.643 -10.3722,11.2827 -15.9732,17.9621 -26.2438,31.2963 -5.7932,7.5213 -15.3498,20.9126 -15.3498,21.5089 0,0.2069 -1.0317,1.6524 -2.2927,3.2126 -1.2609,1.56 -2.2927,3.1074 -2.2927,3.4388 0,0.3312 -0.7718,1.6577 -1.7151,2.9472 -3.4154,4.6695 -11.9128,19.0153 -17.3585,29.3057 -10.5937,20.0184 -17.6969,36.7225 -23.679,55.6845 -7.7356,24.5203 -8.7854,32.6718 -9.2783,72.0444 -0.444,35.4619 -0.4727,35.5907 -6.0684,27.2601 z m 37.9236,-435.1426 c -3.783,-0.9829 -9.6839,-3.215 -13.1132,-4.9606 -6.5283,-3.3229 -18.9847,-13.3462 -18.9847,-15.2762 0,-0.6172 -0.609,-1.5991 -1.3534,-2.182 -1.9323,-1.5134 -5.7326,-9.4099 -7.3519,-15.2761 -1.5687,-5.6835 -1.7868,-17.877 -0.4235,-23.6841 4.7299,-20.1489 27.3296,-43.1519 47.1511,-47.9928 14.8554,-3.6281 29.2667,1.1288 45.7712,15.1076 8.7511,7.4121 13.7973,13.7331 18.9989,23.7984 2.8928,5.5978 3.1304,6.6821 3.1295,14.2791 -7e-4,9.2216 -1.0697,12.9202 -7.3766,25.5292 -8.2058,16.4054 -16.0367,24.2596 -29.3057,29.3928 -5.7236,2.2143 -7.712,2.5143 -18.3416,2.7675 -9.8648,0.235 -13.1089,-0.024 -18.8001,-1.5028 z"
       id="path106"
       inkscape:label="(Orange) Svadhishthana: Encourages joy, creativity, and emotional balance"
       inkscape:export-filename="/home/jond/Public/sotthi.com/assets/media/icon.png"
       inkscape:export-xdpi="24"
       inkscape:export-ydpi="24" />
    <path
       style="display:inline;fill:#00ff7f;fill-opacity:1;stroke-width:0.883899"
       d="m 1617.4384,2454.8409 c -9.2149,-0.5791 -34.4724,-2.6346 -52.7753,-4.2944 -11.3971,-1.0334 -41.1882,-4.7342 -48.6804,-6.047 -2.7525,-0.4821 -11.3513,-1.9676 -19.1083,-3.3009 -24.2502,-4.1675 -34.8825,-6.1814 -39.3136,-7.4461 -3.8279,-1.0926 -13.6193,-3.3208 -35.6117,-8.1041 -3.9251,-0.8536 -8.2244,-1.9743 -9.5541,-2.4901 -1.3297,-0.5157 -6.9217,-2.1231 -12.4267,-3.5719 -21.8873,-5.7599 -42.2993,-11.9513 -57.7796,-17.526 -3.253,-1.1713 -11.4423,-4.1042 -18.1984,-6.5174 -6.7561,-2.4132 -15.1501,-5.471 -18.6533,-6.7952 -3.5031,-1.3241 -8.6214,-3.2351 -11.3739,-4.2466 -2.7525,-1.0115 -6.6424,-2.5824 -8.6442,-3.4911 -2.0018,-0.9084 -7.1201,-3.0526 -11.374,-4.7647 -39.4953,-15.8952 -101.5614,-47.7853 -141.037,-72.4664 -7.5217,-4.7026 -18.0899,-11.5078 -23.6578,-15.2339 -3.7534,-2.5117 -8.8717,-5.8967 -11.3739,-7.522 -2.5023,-1.6255 -6.1875,-4.1236 -8.1893,-5.5512 -2.0018,-1.4279 -5.0728,-3.5507 -6.8244,-4.7177 -5.3401,-3.5581 -21.779,-15.6132 -36.2932,-26.6149 -42.8591,-32.4872 -90.16101,-75.7246 -127.82794,-116.844 -23.67342,-25.8434 -55.91495,-64.3663 -67.19205,-80.2825 -1.84032,-2.5973 -6.64088,-9.166 -10.66793,-14.5969 -6.3143,-8.5156 -13.35859,-18.8158 -29.52934,-43.179 -10.43354,-15.7195 -33.94384,-55.9097 -45.86895,-78.4119 -7.48079,-14.1157 -19.2317,-38.0295 -26.11313,-53.1415 -15.77719,-34.6476 -16.33492,-36.0141 -33.29345,-81.5705 -11.14837,-29.9482 -31.2925,-100.1954 -36.19481,-126.2194 -0.97856,-5.1948 -3.22353,-16.7863 -4.98882,-25.7591 -1.76527,-8.9728 -3.81586,-20.5644 -4.55685,-25.7591 -0.74099,-5.1947 -2.78573,-19.491 -4.54387,-31.7695 -3.0363,-21.205 -4.80088,-37.3547 -7.03634,-64.3978 -1.52586,-18.4589 -2.12972,-101.5113 -0.90239,-124.1103 2.89523,-53.3099 9.10666,-100.3112 21.48808,-162.598 4.66361,-23.4609 12.93041,-54.4201 25.54033,-95.6484 15.44113,-50.485 40.44293,-110.6315 67.52657,-162.44786 12.63359,-24.17054 20.17486,-37.45676 37.03957,-65.25634 5.44398,-8.97379 14.38408,-22.91803 22.29524,-34.77476 0.9453,-1.41675 6.77664,-9.72406 12.95853,-18.46069 28.67655,-40.52742 49.63795,-66.25646 87.21607,-107.05324 29.14815,-31.64474 68.13857,-68.36685 98.22328,-92.50902 1.7171,-1.37792 4.7773,-3.88942 6.8005,-5.58114 2.0232,-1.69172 5.5036,-4.47933 7.7343,-6.19468 2.2306,-1.71536 5.7353,-4.42006 7.7882,-6.01046 2.0528,-1.59039 5.2709,-4.05079 7.1513,-5.46753 1.8804,-1.41676 5.7286,-4.35128 8.5514,-6.52119 7.3619,-5.65894 34.2674,-24.75464 42.4502,-30.1282 23.7218,-15.5778 45.9714,-29.43923 51.3992,-32.02143 1.7516,-0.83332 3.8893,-2.0978 4.7506,-2.81001 0.8612,-0.71217 4.8229,-3.0805 8.8038,-5.26292 3.9808,-2.18242 8.5992,-4.72148 10.263,-5.64235 8.6223,-4.77219 21.3618,-11.47117 29.8676,-15.70566 5.2548,-2.616 9.9636,-5.04729 10.4641,-5.40285 1.5319,-1.08842 35.277,-16.80606 38.6714,-18.01222 1.7516,-0.6224 3.7989,-1.58107 4.5496,-2.13035 0.7507,-0.54929 3.6169,-1.88449 6.3694,-2.96708 2.7525,-1.0826 8.2802,-3.30818 12.2838,-4.94574 15.6039,-6.38223 20.2457,-8.19285 26.3876,-10.2929 3.5032,-1.19782 6.8287,-2.52557 7.39,-2.95056 0.9629,-0.72897 6.7234,-2.75393 20.4002,-7.17118 3.2737,-1.05732 6.7542,-2.36101 7.7343,-2.8971 2.8121,-1.53807 48.1203,-15.42159 58.1902,-17.83086 5.0008,-1.19648 9.505,-2.48115 10.0091,-2.85481 0.5041,-0.37366 8.0822,-2.28845 16.8401,-4.2551 8.758,-1.96664 18.3804,-4.17707 21.3831,-4.91206 10.859,-2.65802 33.9112,-7.22024 45.0408,-8.91396 6.2557,-0.952 12.3976,-2.1006 13.6488,-2.55245 3.6094,-1.3036 39.2569,-5.93752 64.604,-8.39808 23.1047,-2.24288 23.5321,-2.2524 101.0006,-2.24897 77.3914,0.003 77.9169,0.0152 100.5693,2.24174 25.9966,2.55528 61.8798,7.20447 64.5806,8.36729 1.0008,0.43096 7.9617,1.74544 15.4685,2.92108 16.4697,2.57932 35.8604,6.34963 37.8283,7.35526 0.7874,0.40238 4.8819,1.38621 9.0992,2.18628 9.7438,1.84858 31.664,7.13311 34.0551,8.21005 1.0009,0.45079 4.8908,1.55463 8.6442,2.45299 9.3803,2.2451 24.9925,6.65135 30.4821,8.60305 2.5024,0.88959 9.2585,3.05379 15.0137,4.80932 5.7551,1.75554 11.6924,3.71775 13.1938,4.36047 1.5013,0.64273 5.5959,2.11884 9.0992,3.28025 11.0584,3.66619 19.0158,6.50878 21.8379,7.80089 1.5014,0.68744 7.6433,3.03859 13.6487,5.22481 6.0056,2.18621 11.3286,4.26703 11.8289,4.62404 0.5005,0.357 5.0046,2.2772 10.0092,4.2671 12.8719,5.1181 47.9056,21.1322 62.7544,28.68539 13.2985,6.76464 25.2619,13.11315 42.0338,22.3059 19.4393,10.65477 46.3285,27.08171 66.276,40.48894 2.5022,1.68183 5.5732,3.71848 6.8243,4.52587 5.213,3.36405 32.0617,22.54638 40.5019,28.93702 5.0102,3.79365 10.538,7.91638 12.2839,9.16161 3.6175,2.5803 31.5276,25.09597 33.7629,27.23722 0.8092,0.77531 4.6876,4.11434 8.6182,7.42009 20.5573,17.28944 56.8444,52.00329 74.9451,71.69611 11.5337,12.54823 30.6217,33.71496 35.5646,39.43792 10.9953,12.73036 27.2551,32.9787 37.2805,46.4257 3.6969,4.95863 9.0668,12.10677 11.9332,15.88477 4.652,6.13133 10.1159,14.05746 20.6501,29.95448 1.8418,2.77973 4.6139,6.83678 6.16,9.01568 3.4506,4.86287 21.1713,33.59796 29.713,48.18141 9.8765,16.86256 29.7434,54.14976 36.1414,67.83225 3.2021,6.84763 7.9631,16.93527 10.5799,22.41707 10.4566,21.9033 27.9627,65.746 36.1336,90.4936 19.7834,59.9193 27.0059,87.1918 37.4051,141.2456 13.8774,72.1312 17.8177,114.9506 17.8179,193.6225 10e-5,77.3918 -4.5931,128.252 -17.2537,191.0464 -1.4757,7.3201 -3.1239,16.0136 -3.6625,19.3194 -1.9057,11.6991 -12.8003,56.1381 -17.6945,72.177 -17.7219,58.0767 -20.6067,66.4376 -36.289,105.1799 -7.7119,19.052 -11.8322,28.5839 -17.4229,40.3073 -2.1395,4.4864 -7.4833,15.6916 -11.875,24.9006 -4.3917,9.2088 -10.1157,20.6072 -12.7198,25.3297 -2.6042,4.7226 -8.3371,15.1549 -12.7402,23.1831 -4.4027,8.0283 -10.056,17.8811 -12.5628,21.8952 -2.5068,4.0142 -8.4273,13.6739 -13.1566,21.466 -4.7291,7.7921 -10.4662,16.8722 -12.7493,20.178 -2.2827,3.3057 -5.0451,7.3626 -6.1385,9.0156 -4.0323,6.0955 -26.9641,38.361 -30.5126,42.9319 -3.3782,4.3514 -5.5277,7.2076 -9.6925,12.8795 -0.8668,1.1806 -4.0447,5.1316 -7.0616,8.7803 -3.0168,3.6484 -6.9184,8.4664 -8.67,10.7065 -11.6772,14.9345 -47.5941,54.9262 -64.604,71.9332 -10.0446,10.0427 -45.0643,43.0732 -53.2812,50.255 -3.5122,3.0696 -9.4851,8.2015 -13.273,11.4047 -3.7879,3.2028 -8.2768,7.0093 -9.9752,8.4587 -1.6986,1.4496 -4.9203,4.0452 -7.1596,5.7682 -2.2393,1.7229 -9.2439,7.1897 -15.5653,12.1483 -6.3217,4.9587 -16.3064,12.4932 -22.1882,16.7434 -5.8818,4.2503 -12.2502,8.8869 -14.1522,10.3035 -4.2038,3.1319 -16.3549,11.4686 -24.4863,16.7996 -3.2883,2.1559 -8.026,5.265 -10.5284,6.9087 -15.2829,10.0399 -33.8732,21.4693 -45.1155,27.7374 -4.7132,2.6278 -9.2132,5.2037 -9.9995,5.7243 -5.4937,3.6359 -40.435,21.7722 -59.5344,30.9012 -6.0054,2.8705 -11.5332,5.5581 -12.2838,5.9725 -1.4189,0.7835 -13.4227,6.0668 -23.6579,10.4129 -3.2528,1.3812 -7.1428,3.1144 -8.6441,3.8514 -1.5013,0.7371 -5.359,2.275 -8.5724,3.4176 -3.2136,1.1426 -6.2939,2.4309 -6.8456,2.8628 -0.5514,0.432 -3.757,1.7767 -7.1234,2.9885 -3.3666,1.2117 -8.8754,3.1943 -12.2419,4.4061 -3.3664,1.2116 -6.5396,2.5276 -7.0518,2.9241 -0.512,0.3965 -3.3877,1.3837 -6.3905,2.1937 -3.0027,0.81 -5.8689,1.7747 -6.3693,2.1438 -0.5006,0.3692 -3.4487,1.4544 -6.5516,2.4116 -3.1029,0.9574 -6.9928,2.3453 -8.6441,3.0845 -1.6514,0.7393 -5.6643,2.0908 -8.9172,3.0033 -3.2528,0.9126 -10.828,3.2655 -16.8334,5.2288 -11.8354,3.8689 -21.7668,6.7305 -34.5768,9.9622 -4.5042,1.1362 -9.0082,2.4351 -10.0091,2.8859 -1.8435,0.8304 -27.3282,6.7307 -37.2524,8.6248 -2.9728,0.5673 -6.0437,1.3588 -6.8244,1.7586 -2.1368,1.0951 -45.0723,8.9102 -63.7482,11.6038 -15.9772,2.3043 -34.9568,4.6327 -45.0408,5.5256 -21.749,1.9256 -42.3944,3.5807 -53.2302,4.2672 -13.2255,0.8383 -91.7144,0.8288 -105.0952,-0.013 z m 113.2844,-81.5051 c 98.6099,-7.5383 189.2529,-26.8564 272.9749,-58.1763 48.3218,-18.077 102.9714,-43.8639 144.6011,-68.2312 28.7665,-16.838 70.6112,-44.1441 71.6818,-46.7763 0.4932,-1.2134 -9.3295,-10.6958 -40.2993,-38.9042 -22.1906,-20.2119 -59.9771,-54.994 -67.4332,-62.0716 -4.1051,-3.8967 -13.5475,-12.8809 -20.9834,-19.9647 -7.4355,-7.0837 -23.9038,-22.3459 -36.5961,-33.916 -12.6922,-11.5701 -25.6161,-23.355 -28.7199,-26.1884 -3.1038,-2.8335 -13.34,-12.1067 -22.7471,-20.6073 -9.407,-8.5004 -18.5744,-16.8077 -20.3721,-18.4606 -1.7975,-1.6529 -10.7765,-9.7671 -19.9534,-18.0314 -24.0291,-21.6403 -25.4475,-22.9216 -43.8952,-39.6501 -9.2064,-8.3483 -19.4003,-17.551 -22.6534,-20.4502 -3.2528,-2.8993 -12.1817,-10.9448 -19.8416,-17.8786 -7.6601,-6.934 -17.5619,-15.8915 -22.0043,-19.9056 -29.0609,-26.2598 -33.677,-30.567 -33.677,-31.4237 0,-0.5256 2.3544,-3.2849 5.2319,-6.132 2.8777,-2.8468 10.3503,-10.298 16.606,-16.5577 15.0675,-15.0772 28.738,-28.6253 38.2166,-37.875 l 7.7343,-7.5475 5.9755,2.7576 c 3.2865,1.5167 7.3811,3.3005 9.0991,3.9638 1.718,0.6634 6.8089,2.8568 11.3129,4.8741 10.5524,4.7265 23.8608,10.3346 40.9462,17.2549 22.8632,9.2605 33.6956,11.9065 46.161,11.276 6.107,-0.3088 8.2096,-0.7974 11.1637,-2.5933 8.8508,-5.3816 17.1693,-17.247 19.6051,-27.9646 1.3184,-5.8013 -0.06,-14.0359 -4.1339,-24.6605 -4.798,-12.519 -9.1787,-21.1164 -35.3646,-69.4067 -4.823,-8.8941 -8.769,-16.6799 -8.769,-17.3017 0,-1.4103 68.4293,-66.5583 69.9107,-66.5583 0.5937,0 2.2558,1.0625 3.6933,2.3613 1.4377,1.2988 9.0517,8.1572 16.9197,15.2408 7.8682,7.0838 16.8528,15.1978 19.9657,18.0315 3.1132,2.8334 11.7326,10.5611 19.1542,17.1727 7.4217,6.6115 16.0405,14.3392 19.1529,17.1726 12.858,11.7058 19.3962,17.4762 24.9975,22.0618 3.2531,2.6632 8.9855,7.6125 12.7389,10.9983 3.7535,3.3859 13.1359,11.822 20.8501,18.7469 7.7141,6.925 15.3058,13.7499 16.8701,15.1666 1.5644,1.4168 10.1697,9.1445 19.1228,17.1729 8.9531,8.0282 18.8031,16.9149 21.8887,19.7485 5.7567,5.2863 9.45,8.6049 36.7904,33.0576 8.7123,7.792 18.3644,16.4857 21.449,19.3192 3.0847,2.8334 11.8803,10.7545 19.5459,17.6021 7.6657,6.8475 16.4813,14.7684 19.5901,17.602 3.1089,2.8336 8.9062,8.0497 12.8832,11.5915 19.5194,17.3841 34.6837,30.977 39.7529,35.6335 3.0844,2.8335 11.9037,10.7544 19.5986,17.602 7.6946,6.8476 16.5256,14.7686 19.6243,17.602 15.4396,14.1182 18.4733,16.7435 19.3486,16.7435 0.5218,0 1.7498,-1.2557 2.7289,-2.7906 0.9788,-1.5347 5.6609,-8.7795 10.4043,-16.0993 50.6918,-78.2249 91.4783,-170.1775 116.2212,-262.0197 6.3764,-23.668 10.3552,-41.853 15.9389,-72.8485 8.7152,-48.3793 12.7241,-82.2342 15.149,-127.9369 1.1987,-22.5915 0.633,-86.3353 -0.9412,-106.0414 -3.1886,-39.9133 -6.521,-66.0485 -13.2868,-104.1995 -15.7454,-88.7859 -43.165,-172.3863 -82.2987,-250.9218 -39.1447,-78.5575 -90.2284,-153.21934 -149.0203,-217.80187 -42.2466,-46.40757 -103.7393,-100.31225 -154.4394,-135.382 -4.0037,-2.76934 -8.7126,-6.06903 -10.464,-7.33262 -10.7179,-7.73184 -42.4886,-27.67338 -63.6943,-39.97904 -43.9018,-25.47626 -106.354,-54.29975 -152.4109,-70.34208 -5.0045,-1.74317 -12.1701,-4.25629 -15.9235,-5.58473 -10.149,-3.59204 -39.0184,-12.36429 -50.9553,-15.48329 -5.7553,-1.50376 -12.9207,-3.46195 -15.9235,-4.35149 -3.0028,-0.88953 -12.625,-3.18518 -21.383,-5.1014 -8.758,-1.91623 -19.1993,-4.24105 -23.2029,-5.16629 -16.9295,-3.91233 -65.855,-11.77511 -87.807,-14.11138 -23.8072,-2.53372 -30.1761,-3.07062 -51.1571,-4.31263 -45.0886,-2.66911 -72.4087,-2.56987 -118.9971,0.43228 -95.1513,6.13152 -199.3224,29.42476 -285.2588,63.78546 -6.5059,2.60132 -14.8999,5.96004 -18.6532,7.46385 -10.385,4.16072 -53.4281,24.14571 -67.7888,31.47445 -48.5117,24.75708 -103.5656,59.73285 -146.9515,93.35828 -90.03989,69.78389 -161.85818,148.6622 -222.3849,244.2463 -50.63766,79.9672 -89.68104,169.222 -113.67017,259.8546 -18.79809,71.0204 -29.7205,146.3542 -31.40389,216.5978 -1.62383,67.7582 2.62704,122.5005 14.85131,191.2543 5.7459,32.317 9.42772,48.938 17.30837,78.1359 23.84474,88.3449 59.70078,171.0568 108.13094,249.4338 38.85728,62.8848 86.59163,123.1859 136.28943,172.1701 62.80341,61.9018 129.79631,112.7269 203.25361,154.2013 22.0399,12.4439 25.58,14.3413 41.8561,22.4353 32.4688,16.1464 50.7286,24.2079 85.5321,37.7613 74.9446,29.1851 166.3866,50.6361 251.5437,59.0087 14.5314,1.4286 23.8745,2.108 52.8233,3.8407 10.5329,0.6303 86.5677,-0.2732 98.2709,-1.1681 z m 59.1446,-586.727 c 0,-5.323 1.9126,-17.4186 6.4794,-40.9773 7.0744,-36.4946 8.0788,-42.803 8.0791,-50.7461 0,-4.0617 -0.4664,-8.6984 -1.0367,-10.3036 -2.846,-8.011 -10.0486,-13.5635 -30.8102,-23.7514 -6.7561,-3.3155 -15.5596,-7.6677 -19.5632,-9.6718 -7.0123,-3.51 -14.8972,-7.4086 -34.8043,-17.2086 -5.1296,-2.5253 -9.3266,-5.0299 -9.3266,-5.5658 0,-0.5358 5.2207,-2.2142 11.6015,-3.7294 17.0855,-4.0574 32.3649,-7.5744 41.6287,-9.5818 4.504,-0.9761 10.8506,-2.4869 14.1035,-3.3573 3.2531,-0.8705 8.9855,-2.2224 12.739,-3.0047 17.7735,-3.7038 23.402,-8.617 28.0696,-24.5032 3.1564,-10.7426 8.808,-44.6452 11.0855,-66.4995 0.5388,-5.1702 1.5692,-13.091 2.2899,-17.6022 0.7206,-4.5109 1.3126,-8.6845 1.3156,-9.2748 0.012,-2.4691 2.7036,-0.7862 4.8057,3.0052 4.3007,7.7563 10.9072,19.566 15.4911,27.6908 2.531,4.4866 7.0387,12.6007 10.0168,18.0314 2.9782,5.431 6.3854,11.1044 7.5715,12.6077 1.1862,1.5032 2.1565,2.9388 2.1565,3.19 0,1.355 6.3025,9.4822 11.7323,15.1293 10.6301,11.0552 21.5238,14.5251 40.0232,12.7485 4.8146,-0.4623 10.3919,-1.2252 12.3936,-1.6954 2.002,-0.47 9.1674,-1.9651 15.9235,-3.3222 6.7562,-1.3572 15.5596,-3.1366 19.5632,-3.9543 4.4156,-0.902 11.5668,-1.5182 18.1768,-1.5665 9.925,-0.072 10.9273,0.062 11.2317,1.5136 0.5383,2.5658 -10.1987,16.4452 -19.7719,25.5588 -15.9448,15.1789 -32.8393,32.5652 -32.8393,33.795 0,0.3565 -1.1261,1.9408 -2.5024,3.5206 -7.5096,8.6203 -11.1464,15.1464 -11.1464,20.0023 0,5.2937 4.8312,17.9514 12.2779,32.1676 6.2203,11.8752 8.8932,16.654 16.4061,29.3307 11.1403,18.7977 17.6258,34.7748 14.1157,34.7748 -2.7273,0 -17.422,-6.2092 -37.3403,-15.7778 -22.7558,-10.932 -27.1858,-12.9503 -32.3019,-14.7166 -2.5024,-0.8639 -4.9591,-1.8561 -5.4594,-2.2047 -0.5006,-0.3488 -3.5715,-1.2897 -6.8245,-2.0909 -9.9873,-2.4597 -19.6579,-0.735 -28.6623,5.1117 -7.2863,4.7312 -14.0648,10.7517 -41.8664,37.1834 -24.8791,23.6532 -30.4655,28.5576 -32.5295,28.5576 -2.209,0 -2.4921,-0.3196 -2.4921,-2.8131 z m -470.0958,-73.8201 c -0.9933,-1.0627 -2.4995,-2.8978 -3.3471,-4.0785 -5.4749,-7.6269 -17.5944,-24.7058 -18.3586,-25.8714 -7.053,-10.7576 -27.7606,-42.988 -27.7606,-43.2082 0,-0.1165 -2.1928,-3.6509 -4.8728,-7.8539 -2.6799,-4.2033 -6.422,-10.3469 -8.3157,-13.6527 -1.8937,-3.3057 -5.3744,-9.1015 -7.7347,-12.8796 -12.2689,-19.6373 -30.0668,-52.707 -35.8139,-66.5442 -7.0172,-16.8953 -8.1989,-20.7022 -8.2622,-26.6177 -0.047,-4.4288 0.458,-6.5759 2.4472,-10.3982 5.0464,-9.6967 23.0755,-27.4579 46.2718,-45.5847 13.7479,-10.7432 20.6458,-15.8382 32.6587,-24.1223 18.3947,-12.6847 24.8821,-17.6937 31.6196,-24.4129 6.126,-6.1096 6.2128,-7.3848 0.455,-6.6833 -17.1748,2.0925 -43.9995,7.2373 -53.345,10.2313 -5.1837,1.6607 -25.6288,6.1694 -37.4191,8.2517 -5.0046,0.8839 -10.9418,1.9794 -13.1938,2.4345 -6.7819,1.3703 -27.0584,2.8216 -30.709,2.198 -5.3309,-0.9108 -7.8192,-2.4661 -11.8137,-7.3843 -5.2518,-6.466 -8.8822,-15.1319 -11.8028,-28.1734 -1.2949,-5.7828 -1.6344,-11.3103 -1.6344,-26.6178 0,-25.3468 1.4105,-31.6951 11.351,-51.0887 9.5596,-18.6507 12.3055,-30.91 9.6711,-43.1782 -2.2418,-10.4403 -6.2345,-18.8995 -17.5128,-37.1044 -15.1882,-24.5157 -16.4308,-34.2832 -9.394,-73.8427 1.4701,-8.2643 3.3048,-18.6968 4.0772,-23.1831 4.4566,-25.8857 10.1598,-50.5186 16.0919,-69.5032 6.1822,-19.7854 7.6075,-20.5435 14.2119,-7.5594 4.699,9.2383 12.1243,26.5983 19.7401,46.1516 0.6437,1.6529 2.2355,5.4456 3.5371,8.4283 1.3016,2.9827 2.3665,5.7462 2.3665,6.1411 0,2.036 19.7779,38.6195 22.3007,41.25 0.7465,0.7784 1.3572,1.6211 1.3572,1.8726 0,0.9192 9.5726,14.1996 15.3551,21.3026 11.2296,13.794 24.6084,27.3425 36.1646,36.6234 2.442,1.9612 5.5176,4.4728 6.8346,5.5812 7.7045,6.4841 22.462,15.8353 37.5611,23.8008 6.3804,3.366 11.7604,6.12 11.9557,6.12 0.1952,0 2.5168,0.9191 5.159,2.0424 18.7697,7.9795 25.0597,10.125 48.48,16.5364 8.0794,2.2119 25.1632,5.2601 37.7615,6.738 6.7562,0.7925 13.717,1.8091 15.4686,2.259 1.7516,0.4499 21.5087,1.8871 43.9047,3.1938 25.1226,1.4659 41.1041,2.7385 41.7228,3.3223 0.7304,0.6894 -0.1013,2.0764 -3.0634,5.1079 -18.6966,19.1346 -43.9558,44.8193 -53.4903,54.3916 -6.3503,6.3753 -13.8473,14.166 -16.66,17.3126 -2.8128,3.1465 -5.4726,5.8513 -5.9108,6.0104 -1.0412,0.3782 -13.6193,14.0423 -16.48,17.9028 -1.22,1.6466 -4.7872,5.8917 -7.9269,9.4337 -8.4123,9.49 -10.5888,12.0579 -12.3085,14.5222 -0.8525,1.2215 -2.7764,3.7667 -4.2751,5.6558 -10.7163,13.5063 -24.37,32.9611 -33.7454,48.0836 -8.5336,13.7644 -11.7447,19.409 -19.2939,33.9161 -21.2112,40.7606 -32.4524,73.5956 -38.9881,113.8818 -2.7195,16.7625 -3.4033,47.2524 -1.4033,62.5679 2.665,20.4085 3.4923,30.3179 2.8621,34.2835 -0.5296,3.3328 -0.9351,3.9257 -2.6843,3.9257 -1.1332,0 -2.8732,-0.8692 -3.8666,-1.9318 z m 47.8947,-573.7374 c -16.4328,-3.3218 -28.7404,-10.002 -41.8562,-22.7184 -8.8473,-8.578 -11.3074,-11.7921 -17.1494,-22.4062 -14.0218,-25.4753 -14.7316,-56.1877 -1.8503,-80.0611 7.3755,-13.6693 25.7768,-24.67428 50.8469,-30.40917 20.1207,-4.60274 31.9896,-4.65792 45.8636,-0.21322 13.8858,4.44845 23.3201,10.05754 33.0814,19.66809 17.4442,17.1749 26.6913,45.3514 22.9338,69.8806 -2.1839,14.2563 -9.408,30.5911 -17.8779,40.4241 -9.225,10.7098 -24.4216,20.4963 -38.0502,24.5042 -8.2104,2.4144 -27.1186,3.1148 -35.9417,1.3311 z"
       id="path108"
       inkscape:label="(Green) Anahata: Opens the heart to love and emotional healing."
       inkscape:export-filename="/home/jond/Public/sotthi.com/assets/media/icon.png"
       inkscape:export-xdpi="24"
       inkscape:export-ydpi="24" />
  </g>
  <metadata
     id="metadata1459">
    <rdf:RDF>
      <cc:Work
         rdf:about="">
        <cc:license
           rdf:resource="http://creativecommons.org/licenses/by-sa/4.0/" />
        <dc:title>Sotthi</dc:title>
        <dc:creator>
          <cc:Agent>
            <dc:title>Jonathan Dumont</dc:title>
          </cc:Agent>
        </dc:creator>
      </cc:Work>
      <cc:License
         rdf:about="http://creativecommons.org/licenses/by-sa/4.0/">
        <cc:permits
           rdf:resource="http://creativecommons.org/ns#Reproduction" />
        <cc:permits
           rdf:resource="http://creativecommons.org/ns#Distribution" />
        <cc:requires
           rdf:resource="http://creativecommons.org/ns#Notice" />
        <cc:requires
           rdf:resource="http://creativecommons.org/ns#Attribution" />
        <cc:permits
           rdf:resource="http://creativecommons.org/ns#DerivativeWorks" />
        <cc:requires
           rdf:resource="http://creativecommons.org/ns#ShareAlike" />
      </cc:License>
    </rdf:RDF>
  </metadata>
</svg>
